<svg xmlns="http://www.w3.org/2000/svg" viewBox="0 0 600 600"><defs><radialGradient id="bg" cx="50%" cy="38%" r="58%"><stop offset="0" stop-color="#4a4a4a"/><stop offset="1" stop-color="#050505"/></radialGradient><linearGradient id="gold" x1="0" x2="1"><stop stop-color="#fff0a0"/><stop offset="1" stop-color="#d4a73e"/></linearGradient></defs><rect width="600" height="600" rx="42" fill="url(#bg)"/><circle cx="300" cy="212" r="118" fill="#d4d4d4" opacity=".9"/><path d="M185 184c50-86 184-86 230 0-20-22-55-36-115-36s-95 14-115 36z" fill="#111"/><rect x="195" y="235" width="210" height="34" rx="17" fill="none" stroke="#151515" stroke-width="12"/><line x1="300" x2="300" y1="235" y2="269" stroke="#151515" stroke-width="10"/><circle cx="255" cy="252" r="12" fill="#111"/><circle cx="345" cy="252" r="12" fill="#111"/><path d="M250 325c28 34 72 34 100 0" fill="none" stroke="#111" stroke-width="13" stroke-linecap="round"/><path d="M225 306c38 84 112 84 150 0 4 74-27 126-75 126s-79-52-75-126z" fill="#171717" opacity=".88"/><path d="M105 600c35-130 112-185 195-185s160 55 195 185z" fill="#070707"/><text x="300" y="520" text-anchor="middle" font-family="Arial Black,Arial" font-size="28" fill="url(#gold)" letter-spacing="3">VALDIVINO</text><text x="300" y="555" text-anchor="middle" font-family="Arial, sans-serif" font-size="18" fill="#f5f5f5" letter-spacing="4">AUTOR</text></svg>
