<svg xmlns="http://www.w3.org/2000/svg" viewBox="0 0 720 1080"><defs><linearGradient id="gold" x1="0" x2="1" y1="0" y2="1"><stop offset="0" stop-color="#fff0a0"/><stop offset=".45" stop-color="#d4a73e"/><stop offset="1" stop-color="#8c5e13"/></linearGradient><radialGradient id="light" cx="35%" cy="18%" r="45%"><stop offset="0" stop-color="#ffdf6a"/><stop offset=".5" stop-color="#3a2107"/><stop offset="1" stop-color="#050505"/></radialGradient><filter id="shadow"><feDropShadow dx="0" dy="8" stdDeviation="9" flood-opacity=".65"/></filter></defs><rect width="720" height="1080" fill="#050505"/><rect width="720" height="1080" fill="url(#light)" opacity=".88"/><path d="M0 265 C150 160 210 260 315 230 C490 180 510 70 720 95 V1080 H0Z" fill="#080807" opacity=".82"/><g opacity=".75" fill="url(#gold)"><path d="M96 290h240l-35 24H58z"/><path d="M80 350h260l-42 28H35z"/><path d="M64 430h300l-50 34H12z"/><path d="M40 540h350l-65 42H0z"/></g><g filter="url(#shadow)"><path d="M360 150l130 50v132c0 118-75 194-130 218-55-24-130-100-130-218V200z" fill="#15120c" stroke="url(#gold)" stroke-width="14"/><path d="M316 310c55-90 135-40 115 30-16 54-78 86-130 54 66 4 102-24 108-58 8-45-45-70-93-26z" fill="url(#gold)"/><path d="M280 226c35-22 97-28 136 2-67-3-111 31-136 76z" fill="url(#gold)"/></g><circle cx="588" cy="154" r="72" fill="none" stroke="url(#gold)" stroke-width="5"/><text x="588" y="127" text-anchor="middle" font-family="Arial Black,Arial" font-size="22" fill="#fff">MÉTODO</text><text x="588" y="165" text-anchor="middle" font-family="Arial Black,Arial" font-size="38" fill="#fff">30 DIAS</text><text x="588" y="196" text-anchor="middle" font-family="Arial Black,Arial" font-size="20" fill="#fff">COMPROVADO</text><text x="360" y="690" text-anchor="middle" font-family="Impact,Arial Black,Arial" font-size="92" fill="url(#gold)" letter-spacing="3">DISCIPLINA</text><text x="360" y="800" text-anchor="middle" font-family="Impact,Arial Black,Arial" font-size="96" fill="url(#gold)" letter-spacing="2">EM 30 DIAS</text><text x="360" y="875" text-anchor="middle" font-family="Arial, sans-serif" font-size="25" fill="#fff" letter-spacing="2">DO CAOS À CONSTÂNCIA</text><text x="360" y="915" text-anchor="middle" font-family="Arial, sans-serif" font-size="23" fill="#fff" letter-spacing="2">TRANSFORME SUA ROTINA E IDENTIDADE</text><line x1="110" x2="610" y1="955" y2="955" stroke="url(#gold)" stroke-width="3"/><text x="360" y="1010" text-anchor="middle" font-family="Arial Black,Arial" font-size="28" fill="url(#gold)" letter-spacing="4">VALDIVINO RODRIGUES</text></svg>
