<svg xmlns="http://www.w3.org/2000/svg" viewBox="0 0 1200 900"><defs><linearGradient id="sky" x1="0" x2="1" y1="0" y2="1"><stop offset="0" stop-color="#050505"/><stop offset=".42" stop-color="#2c1703"/><stop offset=".72" stop-color="#d79b24"/><stop offset="1" stop-color="#fff0a4"/></linearGradient><radialGradient id="sun" cx="74%" cy="22%" r="28%"><stop offset="0" stop-color="#fff7c3"/><stop offset=".16" stop-color="#ffd14c"/><stop offset=".75" stop-color="#6d3807" stop-opacity=".45"/><stop offset="1" stop-color="#000" stop-opacity="0"/></radialGradient><linearGradient id="gold" x1="0" x2="1"><stop stop-color="#5c3208"/><stop offset=".5" stop-color="#ffe28a"/><stop offset="1" stop-color="#5c3208"/></linearGradient></defs><rect width="1200" height="900" fill="url(#sky)"/><rect width="1200" height="900" fill="url(#sun)"/><path d="M0 640 C190 510 270 395 430 520 C590 650 680 350 845 390 C1030 430 1075 255 1200 230 V900 H0Z" fill="#080807" opacity=".94"/><path d="M0 700 C190 560 270 520 430 610 C600 706 670 480 840 515 C1030 552 1085 390 1200 360 V900 H0Z" fill="#0c0b08" opacity=".95"/><g opacity=".65" stroke="#ffda67" stroke-width="4"><path d="M790 138l-440 650"/><path d="M850 150l-470 665"/><path d="M920 170l-490 680"/></g><g fill="url(#gold)" opacity=".88"><path d="M705 250h160l-25 18H680z"/><path d="M672 300h170l-29 20H642z"/><path d="M635 358h184l-32 22H604z"/><path d="M590 425h206l-36 25H552z"/><path d="M535 505h235l-42 29H492z"/><path d="M465 608h280l-53 37H410z"/><path d="M380 735h335l-65 45H315z"/></g><g opacity=".26" fill="#fff0b2"><polygon points="895,90 920,250 870,250"/><polygon points="930,110 1020,250 955,250"/><polygon points="855,108 810,250 845,250"/></g><rect width="1200" height="900" fill="none" stroke="#2b1c0a" stroke-width="20" opacity=".45"/></svg>
